<?xml version="1.0" encoding="utf-8"?>
<!-- Generator: Adobe Illustrator 24.0.1, SVG Export Plug-In . SVG Version: 6.00 Build 0)  -->
<svg version="1.1" id="Layer_1" xmlns="http://www.w3.org/2000/svg" xmlns:xlink="http://www.w3.org/1999/xlink" x="0px" y="0px"
	 viewBox="0 0 277 277" style="enable-background:new 0 0 277 277;" xml:space="preserve">
<path d="M136.7,220.2c3.4,0,6.2-2.8,6.2-6.2v-12.1h11.1c19,0,34.4-15.4,34.4-34.4v-2.5c0-12.1-6.3-23.2-16.7-29.4
	c11.5-9.1,16-24.5,11.2-38.3C178.2,83.3,165.2,74,150.5,74H143V64c0-3.4-2.8-6.2-6.2-6.2c-3.4,0-6.2,2.8-6.2,6.2v10h-14V64
	c0-3.4-2.8-6.2-6.2-6.2c-3.4,0-6.2,2.8-6.2,6.2v10h-9.3c-3.4,0-6.2,2.8-6.2,6.2s2.8,6.2,6.2,6.2h9.3v102.9h-9.3
	c-3.4,0-6.2,2.8-6.2,6.2c0,3.4,2.8,6.2,6.2,6.2h9.3v12.1c0,3.4,2.8,6.2,6.2,6.2c3.4,0,6.2-2.8,6.2-6.2v-12.1h14v12.1
	c0,1.7,0.7,3.2,1.8,4.4C133.5,219.5,135.1,220.2,136.7,220.2z M150.5,86.5c12,0.2,21.7,10,21.7,22c0,12-9.6,21.8-21.7,22h-34v-44
	L150.5,86.5z M116.5,142.9h37.6c12.1,0,22,9.9,22,22v2.5c0,12.1-9.9,22-22,22h-37.6V142.9z"/>
</svg>
