<?xml version="1.0" encoding="UTF-8" standalone="no"?>
<svg
   xmlns:dc="http://purl.org/dc/elements/1.1/"
   xmlns:cc="http://creativecommons.org/ns#"
   xmlns:rdf="http://www.w3.org/1999/02/22-rdf-syntax-ns#"
   xmlns:svg="http://www.w3.org/2000/svg"
   xmlns="http://www.w3.org/2000/svg"
   height="162.39999"
   width="99.699997"
   xml:space="preserve"
   viewBox="0 0 99.699997 162.39999"
   y="0px"
   x="0px"
   id="Layer_1"
   version="1.1"><metadata
   id="metadata186"><rdf:RDF><cc:Work
       rdf:about=""><dc:format>image/svg+xml</dc:format><dc:type
         rdf:resource="http://purl.org/dc/dcmitype/StillImage" /><dc:title></dc:title></cc:Work></rdf:RDF></metadata><defs
   id="defs184" />
<path
   id="path179"
   d="m 48,162.4 c 3.4,0 6.2,-2.8 6.2,-6.2 v -12.1 h 11.1 c 19,0 34.4,-15.4 34.4,-34.4 v -2.5 C 99.7,95.1 93.4,84 83,77.8 94.5,68.7 99,53.3 94.2,39.5 89.5,25.5 76.5,16.2 61.8,16.2 H 54.3 V 6.2 C 54.3,2.8 51.5,0 48.1,0 44.7,0 41.9,2.8 41.9,6.2 v 10 h -14 V 6.2 C 27.9,2.8 25.1,0 21.7,0 18.3,0 15.5,2.8 15.5,6.2 v 10 H 6.2 C 2.8,16.2 0,19 0,22.4 c 0,3.4 2.8,6.2 6.2,6.2 h 9.3 V 131.5 H 6.2 c -3.4,0 -6.2,2.8 -6.2,6.2 0,3.4 2.8,6.2 6.2,6.2 h 9.3 V 156 c 0,3.4 2.8,6.2 6.2,6.2 3.4,0 6.2,-2.8 6.2,-6.2 v -12.1 h 14 V 156 c 0,1.7 0.7,3.2 1.8,4.4 1.1,1.3 2.7,2 4.3,2 z M 61.8,28.7 c 12,0.2 21.7,10 21.7,22 0,12 -9.6,21.8 -21.7,22 h -34 v -44 z m -34,56.4 h 37.6 c 12.1,0 22,9.9 22,22 v 2.5 c 0,12.1 -9.9,22 -22,22 H 27.8 Z" />
</svg>
