<?xml version="1.0" encoding="utf-8"?>
<!-- Generator: Adobe Illustrator 24.0.1, SVG Export Plug-In . SVG Version: 6.00 Build 0)  -->
<svg version="1.1" id="Layer_2" xmlns="http://www.w3.org/2000/svg" xmlns:xlink="http://www.w3.org/1999/xlink" x="0px" y="0px"
	 viewBox="0 0 110.7 112.9" style="enable-background:new 0 0 110.7 112.9;" xml:space="preserve">
<style type="text/css">
	.m-btc-icon-0{stroke-width:0.15}
	.m-btc-icon-1{stroke-width:0.85;stroke-miterlimit:10;}
</style>
<path class="m-btc-icon-0" d="M84.2,38.4L63.3,0.3L36.1,32.2L4.4,59.2l34.4,24.4l24.3,26.8L90.2,86l14.7-27L84.2,38.4z M78,53.2l-4.6,15.9
	l-14.7,5.4l-7-2.2l-4.3-12.5l3.3-11.1l13.9-3.6L77,49.9L78,53.2z M78.8,48.2l-2-6.3l4.8-1.3l-2.3,7.8L78.8,48.2z M76.1,47.2
	l-7.8-3.1l6.3-1.6L76.1,47.2z M64.7,42.7l-11-4.3l9.5-32.2l10.8,34.2L64.7,42.7z M61,43.7l-9.6,2.5l1.7-5.7L61,43.7z M48.9,46.9
	l-5.5,1.4l-4.6-13.4L51,39.7L48.9,46.9z M48.1,49.4l-2,6.8l-2-5.8L48.1,49.4z M45,59.9l-2.8,9.4l-32-10.1L42,51L45,59.9z M46.3,63.6
	l2.7,7.9L44.4,70L46.3,63.6z M50,74.1l1.1,3.2l-9.8,3.6l2.6-8.8L50,74.1z M52.6,75l2.6,0.8l-2.1,0.8L52.6,75z M58.7,76.9l11.4,3.6
	L63,105.1l-9.1-26.4L58.7,76.9z M62.2,75.6l10.5-3.9l-1.9,6.5L62.2,75.6z M75.3,70.8l7.4-2.7l4.9,15.5L72.9,79L75.3,70.8z M76,68.1
	l3.2-11l2.8,8.8L76,68.1z M80.3,53.2l0.5-1.7l19.5,7.7l-16.3,6L80.3,53.2z M81.5,49.3l2.3-8.1l15.1,15L81.5,49.3z M76.1,39.8
	l-8.5-26.9l13.9,25.5L76.1,39.8z M51.6,37.6l-12.8-5L60.6,7L51.6,37.6z M41.2,48.9l-30.6,8l25.7-21.9L41.2,48.9z M41.6,71.5
	l-2.8,9.4L12.7,62.4L41.6,71.5z M51.8,79.4l8.5,24.5L41.5,83.2L51.8,79.4z M72.3,81.1l14.8,4.6l-21.7,19.6L72.3,81.1z M84.8,67.3
	l16.3-6L89.6,82.4L84.8,67.3z"/>
<path class="m-btc-icon-1" d="M61.5,68.3c0.4,0,0.7-0.3,0.7-0.7v-1.4h1.3c2.2,0,4-1.8,4-4v-0.3c0-1.4-0.7-2.7-1.9-3.4c1.3-1,1.8-2.8,1.3-4.4
	c-0.6-1.6-2.1-2.7-3.8-2.7h-0.9v-1.1c0-0.4-0.3-0.7-0.7-0.7c-0.4,0-0.7,0.3-0.7,0.7v1.1h-1.6v-1.1c0-0.4-0.3-0.7-0.7-0.7
	c-0.4,0-0.7,0.3-0.7,0.7v1.1h-1.1c-0.4,0-0.7,0.3-0.7,0.7c0,0.4,0.3,0.7,0.7,0.7h1.1v11.9h-1.1c-0.4,0-0.7,0.3-0.7,0.7
	c0,0.4,0.3,0.7,0.7,0.7h1.1v1.4c0,0.4,0.3,0.7,0.7,0.7c0.4,0,0.7-0.3,0.7-0.7v-1.4h1.6v1.4c0,0.2,0.1,0.4,0.2,0.5
	C61.2,68.2,61.4,68.3,61.5,68.3z M63.1,52.9c1.4,0,2.5,1.2,2.5,2.5c0,1.4-1.1,2.5-2.5,2.5h-3.9v-5.1L63.1,52.9z M59.2,59.4h4.3
	c1.4,0,2.5,1.1,2.5,2.5v0.3c0,1.4-1.1,2.5-2.5,2.5h-4.3V59.4z"/>
</svg>
