<svg xmlns="http://www.w3.org/2000/svg" width="110.748" height="112.95" viewBox="0 0 110.748 112.95">
  <g id="m-eth" transform="translate(-428.526 -73.834)">
    <path id="Path_578" data-name="Path 578" d="M513.366,147.141l24.17-29.748-36.789-10.263L479.6,75.365,453.161,99.846l-20.425,21.136-3.188,31.445L443.8,185.393,479.62,174l35.788,11.392Z" transform="translate(0 0)" fill="none" stroke-miterlimit="10" stroke-width="2"/>
    <line id="Line_22" data-name="Line 22" x1="35.804" y2="110.027" transform="translate(443.8 75.365)" fill="none" stroke-miterlimit="10" stroke-width="2"/>
    <line id="Line_23" data-name="Line 23" x1="93.736" y2="68.001" transform="translate(443.8 117.392)" fill="none" stroke-miterlimit="10" stroke-width="2"/>
    <line id="Line_24" data-name="Line 24" y1="3.589" x2="104.8" transform="translate(432.736 117.392)" fill="none" stroke-miterlimit="10" stroke-width="2"/>
    <line id="Line_25" data-name="Line 25" x1="82.672" y1="64.411" transform="translate(432.736 120.981)" fill="none" stroke-miterlimit="10" stroke-width="2"/>
    <line id="Line_26" data-name="Line 26" x2="35.804" y2="110.027" transform="translate(479.604 75.365)" fill="none" stroke-miterlimit="10" stroke-width="2"/>
    <line id="Line_27" data-name="Line 27" x2="26.459" y2="74.155" transform="translate(453.161 99.846)" fill="none" stroke-miterlimit="10" stroke-width="2"/>
    <line id="Line_28" data-name="Line 28" x1="21.128" y2="66.871" transform="translate(479.619 107.129)" fill="none" stroke-miterlimit="10" stroke-width="2"/>
    <line id="Line_29" data-name="Line 29" y1="45.297" x2="71.2" transform="translate(429.548 107.129)" fill="none" stroke-miterlimit="10" stroke-width="2"/>
    <line id="Line_30" data-name="Line 30" x1="83.818" y2="5.286" transform="translate(429.548 147.14)" fill="none" stroke-miterlimit="10" stroke-width="2"/>
    <line id="Line_31" data-name="Line 31" x2="60.205" y2="47.294" transform="translate(453.161 99.846)" fill="none" stroke-miterlimit="10" stroke-width="2"/>
    <path id="Path_579" data-name="Path 579" d="M653.849,388.611l-6.45-3.069,6.45,11.272,6.45-11.272Zm-3.054.08,3.054,1.453,3.054-1.453-3.054,5.337Z" transform="translate(-175.114 -249.327)" stroke-width="0.45" />
    <path id="Path_580" data-name="Path 580" d="M660.971,333.826,654.738,323l-6.233,10.826,6.233,2.952Zm-6.233-8.052,3.555,6.175-3.555-1.684-3.555,1.684Zm0,6.022,3.643,1.726-3.643,1.726-3.643-1.726Z" transform="translate(-176.003 -199.055)" stroke-width="0.45" />
  </g>
</svg>
