<svg xmlns="http://www.w3.org/2000/svg" width="29.923" height="27.5" viewBox="0 0 29.923 27.5">
    <g id="exchange" transform="translate(0 -20.733)">
        <g id="Group_1032" data-name="Group 1032" transform="translate(0 20.733)">
            <g id="Group_1031" data-name="Group 1031">
                <path id="Path_576" d="M28.052 248.2c0 2.618-1.571 2.805-1.87 2.805H3.189l4.946-4.946-1.318-1.328-6.545 6.547a.935.935 0 0 0 0 1.318l6.545 6.545 1.318-1.318-4.946-4.946h22.993c1.29 0 3.74-.935 3.74-4.675V245.4h-1.87z" class="cls-1" data-name="Path 576" transform="translate(0 -231.642)"/>
                <path id="Path_577" d="M1.883 31.683c0-2.618 1.571-2.805 1.87-2.805h22.993L21.8 33.824l1.318 1.318 6.546-6.542a.935.935 0 0 0 0-1.318l-6.545-6.545-1.329 1.324 4.956 4.946H3.753c-1.29 0-3.74.935-3.74 4.675v2.805h1.87z" class="cls-1" data-name="Path 577" transform="translate(-.012 -20.733)"/>
            </g>
        </g>
    </g>
</svg>
