<svg xmlns="http://www.w3.org/2000/svg" width="10" height="15.958" viewBox="0 0 10 15.958">
    <g id="prefix__hourglass" transform="translate(-69.236)">
        <g id="prefix__Group_1047" data-name="Group 1047" transform="translate(69.236)">
            <path id="prefix__Path_586" d="M78.7 14.894h-.479v-3.139a3.048 3.048 0 00-1.117-2.234l-1.857-1.489 1.862-1.489a3.048 3.048 0 001.117-2.234V1.064h.474a.5.5 0 00.532-.532A.5.5 0 0078.7 0h-8.932a.5.5 0 00-.532.532.5.5 0 00.532.532h.479v3.245a3.048 3.048 0 001.117 2.234l1.862 1.489-1.862 1.489a3.048 3.048 0 00-1.117 2.234v3.138h-.479a.532.532 0 000 1.064H78.7a.532.532 0 000-1.064zM72 5.691a1.941 1.941 0 01-.691-1.383V1.064h5.851v3.244a2.046 2.046 0 01-.691 1.383L74.4 7.34a.454.454 0 00-.181.231.876.876 0 00-.138-.178zm5.16 9.2h-5.85v-3.136a1.941 1.941 0 01.69-1.383l2.074-1.649a.454.454 0 00.181-.231.876.876 0 00.138.178l2.075 1.7a1.941 1.941 0 01.691 1.383z" data-name="Path 586" transform="translate(-69.236)">
        </g>
    </g>
</svg>
