<svg xmlns="http://www.w3.org/2000/svg" width="19" height="16" viewBox="0 0 19 16">
    <g>
        <g>
            <path
                d="M12.591 9.045a.58.58 0 1 0 0 1.16.58.58 0 0 0 0-1.16zm-.386-.58h5.023v2.319h-5.023c-.542 0-.966-.382-.966-1.16 0-.777.424-1.158.966-1.158zm3.284-6.567v.772h-4.286a.402.402 0 0 0-.369.405c.01.202.203.377.405.368h4.25v.773H2.932c-.649 0-1.159-.51-1.159-1.16 0-.648.51-1.158 1.16-1.158zM2.932 1.125A1.936 1.936 0 0 0 1 3.057v10.045c0 1.064.869 1.932 1.932 1.932h5.796a.402.402 0 0 0 .391-.386.402.402 0 0 0-.391-.387H2.932c-.649 0-1.159-.51-1.159-1.159V4.56c.326.252.716.429 1.16.429h13.522v2.704h-4.25c-.957 0-1.739.825-1.739 1.932s.782 1.932 1.739 1.932h4.25v2.704h-6.182a.402.402 0 0 0-.392.387c0 .204.188.389.392.386h6.568a.402.402 0 0 0 .386-.386v-3.091h.387A.402.402 0 0 0 18 11.17V8.08a.402.402 0 0 0-.386-.387h-.387v-3.09a.402.402 0 0 0-.386-.387h-.58V1.51a.402.402 0 0 0-.386-.386z" />
            <path stroke-miterlimit="50"
                d="M12.591 9.045a.58.58 0 1 0 0 1.16.58.58 0 0 0 0-1.16zm-.386-.58h5.023v2.319h-5.023c-.542 0-.966-.382-.966-1.16 0-.777.424-1.158.966-1.158zm3.284-6.567v.772h-4.286a.402.402 0 0 0-.369.405c.01.202.203.377.405.368h4.25v.773H2.932c-.649 0-1.159-.51-1.159-1.16 0-.648.51-1.158 1.16-1.158zM2.932 1.125A1.936 1.936 0 0 0 1 3.057v10.045c0 1.064.869 1.932 1.932 1.932h5.796a.402.402 0 0 0 .391-.386.402.402 0 0 0-.391-.387H2.932c-.649 0-1.159-.51-1.159-1.159V4.56c.326.252.716.429 1.16.429h13.522v2.704h-4.25c-.957 0-1.739.825-1.739 1.932s.782 1.932 1.739 1.932h4.25v2.704h-6.182a.402.402 0 0 0-.392.387c0 .204.188.389.392.386h6.568a.402.402 0 0 0 .386-.386v-3.091h.387A.402.402 0 0 0 18 11.17V8.08a.402.402 0 0 0-.386-.387h-.387v-3.09a.402.402 0 0 0-.386-.387h-.58V1.51a.402.402 0 0 0-.386-.386z" />
        </g>
    </g>
</svg>
