<svg xmlns="http://www.w3.org/2000/svg" width="17" height="17" viewBox="0 0 17 17">
    <g>
        <g>
            <path
                d="M11.558 6.052l-.659 7.265L7.607 2.738zM6.477 2.063zm0 0l3.76 12.085-8.255-7.506 1.572-3.117zM3.989 14.262l-2.11-1.587V9.014zm11.132-3.849v2.233l-3.468 2.09.085-.935.618-6.817zM2.563 8.357zm0 0L10 15.121H5.28L2.563 8.358zM11.137 16c.08 0 .16-.022.227-.063l4.424-2.666a.442.442 0 0 0 .212-.376v-2.637c0-.1-.034-.198-.097-.276l-1.895-2.35-.024-.03c-1.657-2.055-1.657-2.055-1.677-2.068l-.005-.004-.002-.002-.001-.001-5.274-4.424a.44.44 0 0 0-.473-.06l-.003.002a.026.026 0 0 0-.003.001L3.03 2.804a.434.434 0 0 0-.195.195L1.047 6.544v.002l-.002.002A.45.45 0 0 0 1 6.74v6.155c0 .137.066.268.175.35l3.54 2.663.006.004c.074.056.17.088.264.088h6.152z" />
            <path stroke-miterlimit="50"
                d="M11.558 6.052l-.659 7.265L7.607 2.738zM6.477 2.063h0zm0 0l3.76 12.085-8.255-7.506 1.572-3.117zM3.989 14.262l-2.11-1.587V9.014h0zm11.132-3.849v2.233l-3.468 2.09.085-.935.618-6.817zM2.563 8.357h0zm0 0L10 15.121H5.28L2.563 8.358zM11.137 16c.08 0 .16-.022.227-.063l4.424-2.666a.442.442 0 0 0 .212-.376v-2.637c0-.1-.034-.198-.097-.276l-1.895-2.35-.024-.03c-1.657-2.055-1.657-2.055-1.677-2.068l-.005-.004-.002-.002-.001-.001-5.274-4.424a.44.44 0 0 0-.473-.06l-.003.002a.026.026 0 0 0-.003.001L3.03 2.804a.434.434 0 0 0-.195.195L1.047 6.544v.002l-.002.002A.45.45 0 0 0 1 6.74v6.155c0 .137.066.268.175.35l3.54 2.663.006.004c.074.056.17.088.264.088h6.152z" />
        </g>
    </g>
</svg>
