<svg xmlns="http://www.w3.org/2000/svg" width="16" height="16" viewBox="0 0 16 16">
    <g id="prefix__tokens" transform="translate(-41.5 -77)">
        <path id="prefix__Path_589" d="M49.5 77a8 8 0 1 0 8 8 8.01 8.01 0 0 0-8-8zm7.237 7.614h-1.149a6.071 6.071 0 0 0-1.522-3.663l.813-.813a7.223 7.223 0 0 1 1.858 4.476zm-6.878-6.878a7.223 7.223 0 0 1 4.476 1.859l-.813.813a6.11 6.11 0 0 0-3.663-1.522zm-.763 0v1.149a6.071 6.071 0 0 0-3.663 1.522l-.813-.813a7.223 7.223 0 0 1 4.48-1.858zm-5.019 2.4l.813.813a6.071 6.071 0 0 0-1.522 3.663h-1.15a7.223 7.223 0 0 1 1.859-4.474zm-1.859 5.244h1.149a6.071 6.071 0 0 0 1.522 3.663l-.813.813a7.234 7.234 0 0 1-1.858-4.474zm6.882 6.875a7.223 7.223 0 0 1-4.48-1.855l.813-.813a6.11 6.11 0 0 0 3.667 1.519zm.382-1.895a5.365 5.365 0 1 1 5.36-5.36 5.37 5.37 0 0 1-5.364 5.36zm.382 1.895v-1.149a6.071 6.071 0 0 0 3.663-1.522l.813.813a7.2 7.2 0 0 1-4.481 1.858zm5.019-2.4l-.813-.813a6.11 6.11 0 0 0 1.522-3.663h1.149a7.234 7.234 0 0 1-1.863 4.478z" data-name="Path 589" />
    </g>
</svg>
