<svg xmlns="http://www.w3.org/2000/svg" id="Group_945" width="50.832" height="41.59" data-name="Group 945" viewBox="0 0 50.832 41.59">
    <path id="Path_538" d="M11.776 14A5.79 5.79 0 0 0 6 19.776v30.037a5.79 5.79 0 0 0 5.776 5.776h17.329a1.155 1.155 0 1 0 0-2.311H11.776a3.433 3.433 0 0 1-3.466-3.466V24.271a5.647 5.647 0 0 0 3.466 1.282h40.435v8.087H39.5c-2.86 0-5.2 2.466-5.2 5.776s2.339 5.776 5.2 5.776h12.711v8.087H33.727a1.155 1.155 0 1 0 0 2.311h19.64a1.2 1.2 0 0 0 1.155-1.155v-9.243h1.155a1.2 1.2 0 0 0 1.155-1.155v-9.242a1.2 1.2 0 0 0-1.155-1.155h-1.155V24.4a1.2 1.2 0 0 0-1.155-1.155h-1.734v-8.09A1.2 1.2 0 0 0 50.478 14zm0 2.311h37.547v2.311H36.507a1.157 1.157 0 1 0 .108 2.311h12.708v2.311H11.776a3.466 3.466 0 1 1 0-6.932zM39.5 35.95h15.022v6.932H39.5c-1.62 0-2.888-1.141-2.888-3.466s1.271-3.466 2.888-3.466zm1.155 1.733a1.733 1.733 0 1 0 1.733 1.733 1.733 1.733 0 0 0-1.73-1.733z" class="cls-1" data-name="Path 538" transform="translate(-6 -14)"/>
</svg>
