<?xml version="1.0" encoding="UTF-8" standalone="no"?>
<svg
   xmlns:dc="http://purl.org/dc/elements/1.1/"
   xmlns:cc="http://creativecommons.org/ns#"
   xmlns:rdf="http://www.w3.org/1999/02/22-rdf-syntax-ns#"
   xmlns:svg="http://www.w3.org/2000/svg"
   xmlns="http://www.w3.org/2000/svg"
   id="svg837"
   preserveAspectRatio="xMidYMid meet"
   viewBox="0 0 1280.000000 1280.000000"
   height="12"
   width="12"
   version="1.0">
  <metadata
     id="metadata843">
    <rdf:RDF>
      <cc:Work
         rdf:about="">
        <dc:format>image/svg+xml</dc:format>
        <dc:type
           rdf:resource="http://purl.org/dc/dcmitype/StillImage" />
        <dc:title></dc:title>
      </cc:Work>
    </rdf:RDF>
  </metadata>
  <defs
     id="defs841" />
  <g
     transform="matrix(0.09852337,0,0,0.09852337,12.68301,12.68301)"
     id="g835">
    <path
       id="path833"
       d="m 2323,12776 c -39,-13 -91,-35 -115,-49 -66,-40 -2121,-2102 -2148,-2156 -27,-53 -60,-170 -60,-208 0,-46 46,-179 79,-230 16,-27 856,-874 1866,-1883 C 2954,7241 3780,6408 3780,6400 3780,6392 2948,5553 1931,4535 -94,2509 54,2666 15,2502 -2,2431 -2,2428 19,2349 31,2305 50,2250 61,2227 87,2175 2144,111 2208,73 2258,43 2392,0 2434,0 c 36,0 158,36 211,62 26,13 667,647 1890,1869 1018,1017 1857,1849 1865,1849 8,0 841,-826 1850,-1835 C 9259,935 10106,95 10133,79 c 51,-34 184,-79 231,-79 36,0 158,36 211,62 50,25 2115,2084 2152,2146 30,51 73,184 73,227 0,48 -45,180 -79,232 -16,27 -856,874 -1866,1883 -1009,1009 -1835,1842 -1835,1850 0,8 826,841 1835,1850 1010,1009 1850,1856 1866,1883 34,52 79,184 79,232 0,43 -43,176 -73,227 -37,62 -2102,2121 -2152,2146 -53,26 -175,62 -211,62 -47,0 -180,-45 -231,-79 -27,-16 -874,-856 -1883,-1866 C 7241,9846 6408,9020 6400,9020 c -8,0 -847,832 -1865,1849 -1223,1222 -1864,1856 -1890,1869 -57,28 -176,62 -216,61 -19,0 -66,-11 -106,-23 z" />
  </g>
</svg>
