<svg xmlns="http://www.w3.org/2000/svg" width="16" height="16" viewBox="0 0 16 16"><g><g><g><path fill="#f7f7f7" d="M10.286 7.942A2.289 2.289 0 0 1 8 10.23a2.289 2.289 0 0 1-2.286-2.287A2.289 2.289 0 0 1 8 5.656a2.289 2.289 0 0 1 2.286 2.286zm.381 0A2.67 2.67 0 0 0 8 5.275a2.67 2.67 0 0 0-2.667 2.667A2.67 2.67 0 0 0 8 10.61a2.67 2.67 0 0 0 2.667-2.667z"/><path fill="none" stroke="#f7f7f7" stroke-miterlimit="50" stroke-width=".5" d="M10.286 7.942A2.289 2.289 0 0 1 8 10.23a2.289 2.289 0 0 1-2.286-2.287A2.289 2.289 0 0 1 8 5.656a2.289 2.289 0 0 1 2.286 2.286zm.381 0A2.67 2.67 0 0 0 8 5.275a2.67 2.67 0 0 0-2.667 2.667A2.67 2.67 0 0 0 8 10.61a2.67 2.67 0 0 0 2.667-2.667z"/></g><g><path fill="#f7f7f7" d="M4.951 12.457l-.658.658a.2.2 0 0 1-.286 0l-1.18-1.18a.201.201 0 0 1 0-.286l.658-.658-.109-.175A5.402 5.402 0 0 1 2.7 9.18l-.047-.2h-.931a.202.202 0 0 1-.202-.203v-1.67c0-.111.09-.202.202-.202h.931l.047-.2a5.41 5.41 0 0 1 .677-1.636l.11-.175-.66-.658a.201.201 0 0 1 0-.286l1.181-1.18a.201.201 0 0 1 .286 0l.659.657.174-.108a5.402 5.402 0 0 1 1.637-.678l.2-.047v-.93c0-.112.09-.203.202-.203h1.67c.111 0 .202.09.202.202v.931l.2.047c.58.135 1.13.363 1.636.678l.175.108.658-.658a.202.202 0 0 1 .287 0l1.18 1.18a.201.201 0 0 1 0 .287l-.658.658.109.175c.314.505.542 1.056.677 1.636l.047.2h.93c.112 0 .203.091.203.203v1.67c0 .11-.09.201-.202.201h-.931l-.047.2a5.417 5.417 0 0 1-.677 1.637l-.11.175.659.658a.201.201 0 0 1 0 .286l-1.18 1.18a.201.201 0 0 1-.287 0l-.658-.658-.175.11a5.41 5.41 0 0 1-1.636.676l-.2.047v.931c0 .112-.09.203-.202.203h-1.67a.203.203 0 0 1-.202-.203v-.931l-.2-.047a5.41 5.41 0 0 1-1.637-.677l-.174-.109zm3.884 2.485c.397 0 .72-.323.72-.72v-.524c.495-.133.97-.33 1.415-.586l.37.37c.13.13.315.205.51.205.194 0 .38-.075.51-.205l1.18-1.18a.716.716 0 0 0 .21-.51.717.717 0 0 0-.21-.51l-.37-.37c.255-.443.452-.92.586-1.414h.523c.398 0 .721-.324.721-.72v-1.67a.722.722 0 0 0-.721-.721h-.523a5.907 5.907 0 0 0-.586-1.415l.37-.37a.716.716 0 0 0 .21-.51.716.716 0 0 0-.21-.509l-1.18-1.18a.723.723 0 0 0-.51-.205.723.723 0 0 0-.51.204l-.37.37a5.925 5.925 0 0 0-1.415-.585v-.524a.721.721 0 0 0-.72-.72h-1.67a.722.722 0 0 0-.72.72v.524c-.496.133-.972.33-1.415.586l-.37-.37a.722.722 0 0 0-.51-.205.723.723 0 0 0-.51.205l-1.18 1.18a.716.716 0 0 0-.21.51c0 .192.074.373.21.51l.37.37c-.256.443-.453.92-.586 1.414h-.523a.722.722 0 0 0-.72.72v1.67c0 .397.322.72.72.72h.523c.133.495.33.971.586 1.415l-.37.37a.717.717 0 0 0 0 1.02l1.18 1.18c.13.13.316.205.51.205.195 0 .38-.075.51-.205l.37-.37c.444.256.92.453 1.415.586v.524c0 .397.323.72.72.72h1.67z"/><path fill="none" stroke="#f7f7f7" stroke-miterlimit="50" stroke-width=".5" d="M4.951 12.457l-.658.658a.2.2 0 0 1-.286 0l-1.18-1.18a.201.201 0 0 1 0-.286l.658-.658-.109-.175A5.402 5.402 0 0 1 2.7 9.18l-.047-.2h-.931a.202.202 0 0 1-.202-.203v-1.67c0-.111.09-.202.202-.202h.931l.047-.2a5.41 5.41 0 0 1 .677-1.636l.11-.175-.66-.658a.201.201 0 0 1 0-.286l1.181-1.18a.201.201 0 0 1 .286 0l.659.657.174-.108a5.402 5.402 0 0 1 1.637-.678l.2-.047v-.93c0-.112.09-.203.202-.203h1.67c.111 0 .202.09.202.202v.931l.2.047c.58.135 1.13.363 1.636.678l.175.108.658-.658a.202.202 0 0 1 .287 0l1.18 1.18a.201.201 0 0 1 0 .287l-.658.658.109.175c.314.505.542 1.056.677 1.636l.047.2h.93c.112 0 .203.091.203.203v1.67c0 .11-.09.201-.202.201h-.931l-.047.2a5.417 5.417 0 0 1-.677 1.637l-.11.175.659.658a.201.201 0 0 1 0 .286l-1.18 1.18a.201.201 0 0 1-.287 0l-.658-.658-.175.11a5.41 5.41 0 0 1-1.636.676l-.2.047v.931c0 .112-.09.203-.202.203h-1.67a.203.203 0 0 1-.202-.203v-.931l-.2-.047a5.41 5.41 0 0 1-1.637-.677l-.174-.109h0zm3.884 2.485c.397 0 .72-.323.72-.72v-.524c.495-.133.97-.33 1.415-.586l.37.37c.13.13.315.205.51.205.194 0 .38-.075.51-.205l1.18-1.18a.716.716 0 0 0 .21-.51.717.717 0 0 0-.21-.51l-.37-.37c.255-.443.452-.92.586-1.414h.523c.398 0 .721-.324.721-.72v-1.67a.722.722 0 0 0-.721-.721h-.523a5.907 5.907 0 0 0-.586-1.415l.37-.37a.716.716 0 0 0 .21-.51.716.716 0 0 0-.21-.509l-1.18-1.18a.723.723 0 0 0-.51-.205.723.723 0 0 0-.51.204l-.37.37a5.925 5.925 0 0 0-1.415-.585v-.524a.721.721 0 0 0-.72-.72h-1.67a.722.722 0 0 0-.72.72v.524c-.496.133-.972.33-1.415.586l-.37-.37a.722.722 0 0 0-.51-.205.723.723 0 0 0-.51.205l-1.18 1.18a.716.716 0 0 0-.21.51c0 .192.074.373.21.51l.37.37c-.256.443-.453.92-.586 1.414h-.523a.722.722 0 0 0-.72.72v1.67c0 .397.322.72.72.72h.523c.133.495.33.971.586 1.415l-.37.37a.717.717 0 0 0 0 1.02l1.18 1.18c.13.13.316.205.51.205.195 0 .38-.075.51-.205l.37-.37c.444.256.92.453 1.415.586v.524c0 .397.323.72.72.72h1.67z"/></g></g></g></svg>