<svg xmlns="http://www.w3.org/2000/svg" width="15" height="18" viewBox="0 0 15 18"><g><g><path d="M9.81 11.624l-.422.213a.725.725 0 0 1-.33.078h-.002a.74.74 0 0 1-.726-.746v-.358c0-.642-.22-1.273-.618-1.775l-.379-.478-2.346 2.959a3.072 3.072 0 0 0-.71 1.917c-.007.477.094.935.301 1.363a5.522 5.522 0 0 1-1.057-.841 5.337 5.337 0 0 1-1.553-3.839A5.389 5.389 0 0 1 3.22 6.743l.005-.005L7.308 1.59c.464.768.71 1.647.71 2.54v.815c0 1.8 1.445 3.27 3.222 3.281h.024c.336 0 .672-.053.998-.158.286.666.437 1.402.437 2.129 0 1.437-.559 2.788-1.575 3.804a5.416 5.416 0 0 1-1.038.812 3.074 3.074 0 0 0-.053-2.771l-.223-.418zm-2.547-1.42zm0 0c.066.197.1.401.1.607v.358c0 .94.757 1.71 1.687 1.715h.006c.091 0 .184-.007.275-.022.06.198.092.405.092.617a2.08 2.08 0 0 1-.614 1.481 2.074 2.074 0 0 1-1.476.612H7.33a2.069 2.069 0 0 1-1.48-.63 2.078 2.078 0 0 1-.117-2.807zm0 0zm4.545 4.483a6.307 6.307 0 0 0 1.859-4.49 6.362 6.362 0 0 0-.74-2.978l-.223-.418-.422.213a2.251 2.251 0 0 1-1.025.244h-.011C9.999 7.25 8.984 6.212 8.984 4.944v-.814A5.903 5.903 0 0 0 7.712.478L7.333 0 2.476 6.125a6.366 6.366 0 0 0-1.475 3.979 6.3 6.3 0 0 0 1.83 4.531 6.275 6.275 0 0 0 4.49 1.906h.013c1.69 0 3.278-.659 4.474-1.854z"/><path fill="none" stroke="#000" stroke-miterlimit="50" stroke-width=".2" d="M9.81 11.624l-.422.213a.725.725 0 0 1-.33.078h-.002a.74.74 0 0 1-.726-.746v-.358c0-.642-.22-1.273-.618-1.775l-.379-.478-2.346 2.959a3.072 3.072 0 0 0-.71 1.917c-.007.477.094.935.301 1.363a5.522 5.522 0 0 1-1.057-.841 5.337 5.337 0 0 1-1.553-3.839A5.389 5.389 0 0 1 3.22 6.743l.005-.005L7.308 1.59c.464.768.71 1.647.71 2.54v.815c0 1.8 1.445 3.27 3.222 3.281h.024c.336 0 .672-.053.998-.158.286.666.437 1.402.437 2.129 0 1.437-.559 2.788-1.575 3.804a5.416 5.416 0 0 1-1.038.812 3.074 3.074 0 0 0-.053-2.771l-.223-.418h0zm-2.547-1.42h0s0 0 0 0 0 0 0 0zm0 0c.066.197.1.401.1.607v.358c0 .94.757 1.71 1.687 1.715h.006c.091 0 .184-.007.275-.022.06.198.092.405.092.617a2.08 2.08 0 0 1-.614 1.481 2.074 2.074 0 0 1-1.476.612H7.33a2.069 2.069 0 0 1-1.48-.63 2.078 2.078 0 0 1-.117-2.807zm0 0s0 0 0 0zm4.545 4.483a6.307 6.307 0 0 0 1.859-4.49 6.362 6.362 0 0 0-.74-2.978l-.223-.418-.422.213a2.251 2.251 0 0 1-1.025.244h-.011C9.999 7.25 8.984 6.212 8.984 4.944v-.814A5.903 5.903 0 0 0 7.712.478L7.333 0 2.476 6.125a6.366 6.366 0 0 0-1.475 3.979 6.3 6.3 0 0 0 1.83 4.531 6.275 6.275 0 0 0 4.49 1.906h.013c1.69 0 3.278-.659 4.474-1.854z"/></g></g></svg>
