<svg xmlns="http://www.w3.org/2000/svg" width="17" height="14" viewBox="0 0 17 14"><g><g><path fill="#f7f7f7" d="M16 6.5v.938c0 .259-.21.468-.469.468H6.156a.469.469 0 0 1-.469-.468V6.5c0-.259.21-.469.47-.469h9.374c.26 0 .47.21.47.47zm0-4.687v.937c0 .259-.21.469-.469.469H6.156a.469.469 0 0 1-.469-.469v-.937c0-.26.21-.47.47-.47h9.374c.26 0 .47.21.47.47zm0 9.375v.937c0 .26-.21.47-.469.47H6.156a.469.469 0 0 1-.469-.47v-.937c0-.26.21-.469.47-.469h9.374c.26 0 .47.21.47.469zm-12.188.469a1.406 1.406 0 1 1-2.812 0 1.406 1.406 0 0 1 2.812 0zm0-4.688a1.406 1.406 0 1 1-2.812 0 1.406 1.406 0 0 1 2.812 0zm0-4.688a1.406 1.406 0 1 1-2.812 0 1.406 1.406 0 0 1 2.812 0z"/><path fill="none" stroke="#000" stroke-miterlimit="50" stroke-width=".5" d="M16 6.5v.938c0 .259-.21.468-.469.468H6.156a.469.469 0 0 1-.469-.468V6.5c0-.259.21-.469.47-.469h9.374c.26 0 .47.21.47.47zm0-4.687v.937c0 .259-.21.469-.469.469H6.156a.469.469 0 0 1-.469-.469v-.937c0-.26.21-.47.47-.47h9.374c.26 0 .47.21.47.47zm0 9.375v.937c0 .26-.21.47-.469.47H6.156a.469.469 0 0 1-.469-.47v-.937c0-.26.21-.469.47-.469h9.374c.26 0 .47.21.47.469zm-12.188.469a1.406 1.406 0 1 1-2.812 0 1.406 1.406 0 0 1 2.812 0zm0-4.688a1.406 1.406 0 1 1-2.812 0 1.406 1.406 0 0 1 2.812 0zm0-4.688a1.406 1.406 0 1 1-2.812 0 1.406 1.406 0 0 1 2.812 0z"/></g></g></svg>