<svg xmlns="http://www.w3.org/2000/svg" id="Group_823" width="50.782" height="42.068" data-name="Group 823" viewBox="0 0 50.782 42.068">
    <g id="Group_821" data-name="Group 821">
        <ellipse id="Ellipse_14" cx="1.5" cy="1" data-name="Ellipse 14" rx="1.5" ry="1" transform="translate(40.171 25.27)"/>
        <path id="Path_541" d="M55.627 33.865h-1.154v-9.348a1.207 1.207 0 0 0-1.154-1.169h-1.731v-8.18A1.207 1.207 0 0 0 50.434 14H11.771A5.82 5.82 0 0 0 6 19.843v30.381a5.82 5.82 0 0 0 5.771 5.843H20.7c7.511 0 8.506-3.509 9.273-4.107.242-.221-3.292 2.38-6.88 1.972l-11.325-.2a3.451 3.451 0 0 1-3.462-3.505V24.389a5.6 5.6 0 0 0 3.462 1.3h40.397v8.18H45.24c-2.857 0-5.194 2.494-5.194 5.843s2.337 5.843 5.194 5.843h6.925v8.18H33.7a1.169 1.169 0 1 0 0 2.337h19.62a1.207 1.207 0 0 0 1.153-1.172v-9.35h1.154a1.207 1.207 0 0 0 1.154-1.169v-9.348a1.207 1.207 0 0 0-1.154-1.168zM49.28 18.674H36.472a1.17 1.17 0 0 0 .108 2.337h12.7v2.337H11.771a3.506 3.506 0 0 1 0-7.011H49.28zm5.194 24.539H45.24c-1.619 0-2.885-1.154-2.885-3.506S43.622 36.2 45.24 36.2h9.233z" data-name="Path 541" transform="translate(-6 -14)"/>
    </g>
    <g id="Group_822" data-name="Group 822" transform="translate(6.458 24.752)">
        <path id="Path_542" d="M24.734 49.775a8.518 8.518 0 0 0-7.517 8.379h-1.283a.591.591 0 0 0-.5.9l2.066 3.31a.583.583 0 0 0 1 0l2.064-3.307a.594.594 0 0 0-.5-.9H18.78A7 7 0 1 1 32.752 59a7.157 7.157 0 0 1-6.294 6.275 23.791 23.791 0 0 1-3.749-.029 2.8 2.8 0 0 1-2.293 1.784c3.088.018 4.907-.1 5.841-.151a8.589 8.589 0 1 0-1.523-17.1z"  data-name="Path 542" transform="translate(-15.345 -49.711)"/>
    </g>
</svg>
