<?xml version="1.0" encoding="UTF-8"?>
<svg viewBox="0 0 163 27" version="1.1" xmlns="http://www.w3.org/2000/svg" xmlns:xlink="http://www.w3.org/1999/xlink">
    <title>Logo lockup</title>
    <defs>
        <polygon id="path-1" points="0.0364421998 0.048714927 10.2533895 0.048714927 10.2533895 25.4769921 0.0364421998 25.4769921"></polygon>
        <polygon id="path-3" points="2.24466891e-05 0.0487205387 11.9183165 0.0487205387 11.9183165 25.4769921 2.24466891e-05 25.4769921"></polygon>
    </defs>
    <g id="Mantis-Wallet" stroke="none" stroke-width="1" fill="none" fill-rule="evenodd">
        <g id="01-A-Overview-Light" transform="translate(-40.000000, -50.000000)">
            <g id="Logo-lockup" transform="translate(40.000000, 50.000000)">
                <text id="Wallet" font-family="Montserrat-SemiBold, Montserrat" font-size="12" font-weight="500" letter-spacing="-0.16" fill="#000000">
                    <tspan x="124" y="17">Wallet</tspan>
                </text>
                <g id="logos/logo-horizontal-lockup">
                    <polygon id="Line" fill="#000000" fill-rule="nonzero" points="114 5 114 19 113 19 113 5"></polygon>
                    <g id="Logo-Horizontal">
                        <polygon id="Fill-1" fill="#000000" points="43.1897643 18.3802357 43.1897643 10.3410662 39.9743322 16.4294501 39.0295511 16.4294501 35.7989675 10.3410662 35.7989675 18.3802357 34.0921773 18.3802357 34.0921773 7.21031425 35.920853 7.21031425 39.5019978 14.0382043 43.0831425 7.21031425 44.9118182 7.21031425 44.9118182 18.3802357"></polygon>
                        <path d="M55.357587,14.0382043 L53.6262177,9.23983165 L51.8342985,14.0382043 L55.357587,14.0382043 Z M52.8822222,7.21031425 L54.3704377,7.21031425 L58.6226263,18.3802357 L56.8305948,18.3802357 L55.6915937,15.3438721 L51.5307071,15.3438721 L50.4068575,18.3802357 L48.5996745,18.3802357 L52.8822222,7.21031425 Z" id="Fill-2" fill="#000000"></path>
                        <polygon id="Fill-3" fill="#000000" points="63.9664029 10.5141639 63.9664029 18.3802132 62.3037767 18.3802132 62.3037767 7.21029181 63.610174 7.21029181 69.6367733 15.2652862 69.6367733 7.22606061 71.3142705 7.22606061 71.3142705 18.3802132 69.933743 18.3802132"></polygon>
                        <polygon id="Fill-4" fill="#000000" points="83.1790404 8.76780584 79.8909933 8.76780584 79.8909933 18.3802076 78.3167508 18.3802076 78.3167508 8.76780584 75.0147868 8.76780584 75.0147868 7.21034231 83.1790404 7.21034231"></polygon>
                        <polygon id="Fill-5" fill="#000000" points="86.8795174 18.3802469 88.5072391 18.3802469 88.5072391 7.21032548 86.8795174 7.21032548"></polygon>
                        <g id="Group-14" transform="translate(0.000000, 0.007407)">
                            <path d="M99.1097755,13.0818519 C98.8280135,12.8447026 98.4830079,12.6436925 98.0744781,12.4785971 C97.6659484,12.31367 97.2082043,12.1640629 96.7011336,12.0298878 C96.2877778,11.9164759 95.9263861,11.8109203 95.6163973,11.712716 C95.306633,11.6147924 95.0482716,11.5014366 94.8418182,11.3722559 C94.6351403,11.2435802 94.4825028,11.0938047 94.3839618,10.9237149 C94.2853648,10.7535129 94.2360382,10.5345455 94.2360382,10.2660831 C94.2360382,9.79189675 94.3932772,9.42062851 94.7080359,9.15222222 C95.0224579,8.88415264 95.5130303,8.75003367 96.1799214,8.75003367 C96.4804826,8.75003367 96.7737486,8.78622896 97.0603367,8.85839506 C97.3467003,8.93056117 97.6097194,9.02337823 97.8491134,9.13690236 C98.0885634,9.25042649 98.2973737,9.37152637 98.4759371,9.50042649 C98.5442312,9.54986532 98.6043883,9.597789 98.6603928,9.64487093 L99.6027609,8.44071829 C99.1707183,8.09004489 98.6683053,7.7961055 98.0956341,7.558844 C97.5226824,7.32169473 96.8982716,7.20289562 96.2222334,7.20289562 C95.705679,7.20289562 95.2266667,7.27523008 94.7854209,7.41956229 C94.3438945,7.56406285 93.9615152,7.7779798 93.637385,8.06159371 C93.3135354,8.34548822 93.0575309,8.69593715 92.8697643,9.11367003 C92.6817733,9.5313468 92.5880022,10.0085634 92.5880022,10.5445903 C92.5880022,10.9778114 92.6514703,11.3467228 92.7782379,11.6507632 C92.9050056,11.9550842 93.0902469,12.220853 93.334523,12.4476207 C93.5786308,12.6745006 93.8861504,12.8679349 94.2571942,13.0278114 C94.6280696,13.1878002 95.0623569,13.3398765 95.5601684,13.4840404 C95.9919304,13.6077778 96.3770595,13.7265769 96.7152189,13.8399888 C97.053266,13.9535129 97.3396296,14.0797194 97.574422,14.2190011 C97.809046,14.3581706 97.9900224,14.5206846 98.1167901,14.7063749 C98.2435017,14.8919529 98.3068575,15.1241077 98.3068575,15.4025028 C98.3068575,15.8665881 98.1379461,16.2173737 97.7997306,16.454523 C97.4617957,16.6919529 96.9828956,16.8102469 96.3631425,16.8102469 C95.977789,16.8102469 95.6069697,16.7614815 95.2502357,16.6632772 C94.8932772,16.5654097 94.5621886,16.4467789 94.2571942,16.3074972 C93.9519192,16.1682716 93.6843547,16.0161953 93.4543883,15.8510999 C93.3757688,15.7948148 93.3057912,15.7409989 93.2397419,15.6882492 L92.2076992,16.887688 C92.7804826,17.3726487 93.4212233,17.7412233 94.1304265,17.9938047 C94.8392929,18.2466105 95.5742536,18.3728171 96.3349158,18.3728171 C96.8419865,18.3728171 97.3160606,18.3133895 97.757587,18.1948709 C98.1988889,18.0765769 98.5862065,17.8908866 98.9195398,17.6379125 C99.2529293,17.3853311 99.5158923,17.0579461 99.7083726,16.6557015 C99.9007407,16.2533446 99.9971493,15.7738272 99.9971493,15.2168687 C99.9971493,14.7216947 99.9198204,14.3016611 99.764826,13.955982 C99.6098316,13.6105836 99.3915376,13.3192256 99.1097755,13.0818519" id="Fill-6" fill="#000000"></path>
                            <g id="Group-10" transform="translate(13.019080, 0.000000)">
                                <mask id="mask-2" fill="white">
                                    <use xlink:href="#path-1"></use>
                                </mask>
                                <g id="Clip-9"></g>
                                <polygon id="Fill-8" fill="#33FF99" mask="url(#mask-2)" points="2.87499439 0.048714927 0.0364421998 7.11336139 7.41489338 25.4769978 10.2533895 18.4123513"></polygon>
                            </g>
                            <g id="Group-13">
                                <mask id="mask-4" fill="white">
                                    <use xlink:href="#path-3"></use>
                                </mask>
                                <g id="Clip-12"></g>
                                <polygon id="Fill-11" fill="#000000" mask="url(#mask-4)" points="7.37841751 7.113367 4.53986532 0.0487205387 1.70131313 7.113367 2.24466891e-05 11.3477104 2.83857464 18.4123569 4.53986532 14.1780696 9.07976431 25.4770034 11.9183165 18.4123569"></polygon>
                            </g>
                        </g>
                    </g>
                </g>
            </g>
        </g>
    </g>
</svg>
