<svg xmlns="http://www.w3.org/2000/svg" viewBox="0 0 1172.82 198.78">
    <g>
        <g class="wordmark">
            <path
                d="M161.9,198.78V55.71L104.68,164.06H87.86L30.37,55.71V198.78H0V0H32.54L96.27,121.51,160,0h32.54V198.78Z" />
            <path
                d="M334.38,0h26.48l75.67,198.78H404.64l-20.27-54h-74l-20,54H258.17Zm44.05,121.51L347.62,36.12l-31.89,85.39Z" />
            <path d="M531.63,58.79v140H502V0h23.25L632.54,143.34V.28h29.85v198.5H637.82Z" />
            <path d="M873.53,27.72H815V198.78H787V27.72H728.24V0H873.53Z" />
            <path d="M939.38,198.78V0h29V198.78Z" />
            <path
                d="M1157,104.62a67.81,67.81,0,0,0-18.42-10.74,208.35,208.35,0,0,0-24.44-8q-11-3-19.3-5.65a60.29,60.29,0,0,1-13.79-6,23.35,23.35,0,0,1-8.14-8q-2.64-4.53-2.64-11.7,0-12.66,8.4-19.82t26.2-7.16a64.09,64.09,0,0,1,15.66,1.93,76.47,76.47,0,0,1,14,5,70.18,70.18,0,0,1,11.15,6.47c1.22.88,2.29,1.73,3.29,2.57L1165.8,22A107.88,107.88,0,0,0,1139,6.33,86.35,86.35,0,0,0,1105.64,0a81.77,81.77,0,0,0-25.57,3.86,57.92,57.92,0,0,0-20.43,11.42A53.93,53.93,0,0,0,1046,34a61.42,61.42,0,0,0-5,25.47q0,11.57,3.38,19.68a40.2,40.2,0,0,0,9.9,14.18,57,57,0,0,0,16.42,10.33,200.3,200.3,0,0,0,23.19,8.12q11.52,3.3,20.55,6.33a80.51,80.51,0,0,1,15.29,6.74,29.72,29.72,0,0,1,9.65,8.68,21.43,21.43,0,0,1,3.39,12.39q0,12.38-9,18.72T1108.15,171a74.2,74.2,0,0,1-19.81-2.62,116.74,116.74,0,0,1-17.67-6.33,85.23,85.23,0,0,1-14.29-8.12c-1.4-1-2.64-2-3.82-2.9l-18.36,21.35A109.06,109.06,0,0,0,1068.41,192a116,116,0,0,0,39.23,6.75,97.29,97.29,0,0,0,25.32-3.17,59.25,59.25,0,0,0,20.68-9.91,47,47,0,0,0,14-17.48q5.13-10.74,5.14-25.61,0-13.22-4.14-22.44A43.09,43.09,0,0,0,1157,104.62Z" />
        </g>
    </g>
</svg>
